<svg xmlns="http://www.w3.org/2000/svg" width="251" height="38" viewBox="0 0 251 38" fill="none">
  <g clip-path="url(#clip0_530_422)">
    <path fill-rule="evenodd" clip-rule="evenodd" d="M16.7362 25.5894V31.0468H3.88085C1.7383 31.0468 0 29.3085 0 27.166V0H5.7V23.6489C5.7 24.7 6.54894 25.5894 7.64043 25.5894H16.7362ZM25.0234 10.4298V31.0468H19.6872V10.4298H25.0234ZM35.2106 31.0468V19.9298C35.2106 18.2319 35.6149 16.9383 36.4638 16.0894C37.3532 15.2 38.5255 14.7553 39.7787 14.7957C40.8702 14.7553 41.9617 15.1191 42.7298 15.8872C43.4574 16.6149 43.8617 17.666 43.8617 19.0404V31.0468H49.1979V18.3936C49.1979 15.7255 48.4702 13.6234 46.9745 12.1277C45.5191 10.6319 43.4574 9.78298 41.3553 9.86383C38.566 9.86383 36.5043 10.834 35.2106 12.734V10.4298H29.9149V31.0468H35.2106ZM86.6319 31.6128C89.5021 31.6128 91.766 30.6021 93.3425 28.5809V31.0064H98.6787V10.3894H93.3425V12.8149C91.766 10.7936 89.5021 9.78298 86.6319 9.78298C83.9234 9.74255 81.3362 10.9149 79.5574 12.9362C75.6362 17.3426 75.6362 24.0128 79.5574 28.4192C81.3362 30.4809 83.9234 31.6532 86.6319 31.6128ZM87.6425 26.5191C86.1064 26.5596 84.6511 25.9936 83.5596 24.9021C82.4681 23.7702 81.9021 22.2745 81.9426 20.6979C81.9021 19.1213 82.4681 17.6255 83.5596 16.4936C84.6511 15.4021 86.1064 14.8362 87.6425 14.8766C89.1787 14.8362 90.6745 15.4021 91.766 16.4936C93.9489 18.8787 93.9489 22.517 91.766 24.8617C90.634 25.9936 89.1383 26.6 87.6425 26.5191ZM72.8064 27.2064C71.2702 29.6723 67.9149 31.6128 63.9532 31.6128C60.5574 31.6128 57.8085 30.5617 55.7468 28.5C53.6851 26.4383 52.634 23.8511 52.634 20.6979C52.5532 17.7872 53.6447 14.9979 55.666 12.9362C57.6872 10.8745 60.3149 9.8234 63.5085 9.8234C66.3383 9.74255 69.0872 10.8745 70.9872 12.9766C72.9681 15.0787 74.0191 17.8681 73.9383 20.7383C73.9383 21.466 73.8574 22.1936 73.7362 22.9213H58.1723C58.9 25.5085 60.8404 26.8021 63.9936 26.8021C66.0149 26.8021 67.5915 26.1149 68.6021 24.7404H73.7362C73.6149 25.6298 73.2511 26.4383 72.8064 27.2064ZM58.1319 18.7979H68.6425C68.4404 17.5447 67.7532 16.4128 66.783 15.6447C65.8532 14.9574 64.7213 14.5936 63.5489 14.634C62.2957 14.5936 61.0425 14.9574 59.9915 15.7255C59.0213 16.4936 58.334 17.5851 58.1319 18.7979ZM108.826 21.183V31.0468H103.489V10.4298H108.826V13.9872C109.27 12.734 110.119 11.683 111.291 10.9957C112.464 10.3489 113.757 9.98511 115.132 9.98511V15.9277C113.596 15.7255 112.06 16.0489 110.766 16.9383C109.472 17.7872 108.826 19.2021 108.826 21.183Z" fill="#141B2D"/>
    <path d="M34.3618 0.161702C34.3618 2.87021 32.3001 5.09362 29.5916 5.29574H19.4448V5.13404C19.4448 2.42553 21.547 0.202128 24.215 0H34.4023L34.3618 0.161702Z" fill="url(#paint0_linear_530_422)"/>
    <path d="M155.695 8.62681V11.6749H155.772C156.051 11.1938 156.382 10.7289 156.762 10.2843C157.142 9.83957 157.583 9.44744 158.076 9.10383C158.573 8.76021 159.123 8.48936 159.734 8.28319C160.344 8.08106 161.027 7.98 161.791 7.98H162.248V13.6557C162.046 13.6032 161.84 13.5587 161.638 13.5223C161.435 13.486 161.217 13.4657 160.991 13.4657C160.332 13.4657 159.721 13.587 159.164 13.8296C158.606 14.0721 158.104 14.3955 157.66 14.7998C157.215 15.204 156.859 15.6891 156.592 16.247C156.326 16.8049 156.168 17.4032 156.115 18.0379V30.687H150.896V8.62681H155.699H155.695Z" fill="#84A2FF"/>
    <path d="M165.721 2.18702C166.307 1.60085 167.018 1.30978 167.855 1.30978C168.692 1.30978 169.403 1.60085 169.989 2.18702C170.576 2.76915 170.867 3.48063 170.867 4.32149C170.867 5.16234 170.576 5.86978 169.989 6.45595C169.403 7.04212 168.692 7.33319 167.855 7.33319C167.018 7.33319 166.307 7.04212 165.721 6.45595C165.134 5.86978 164.843 5.16234 164.843 4.32149C164.843 3.48063 165.134 2.77319 165.721 2.18702ZM170.523 30.687H165.187V8.62681H170.523V30.687Z" fill="#84A2FF"/>
    <path d="M192.68 26.9921C192.276 27.5783 191.815 28.1362 191.31 28.6698C190.801 29.2034 190.222 29.6683 189.576 30.0604C188.929 30.4526 188.209 30.7638 187.421 30.9943C186.633 31.2247 185.784 31.3379 184.87 31.3379C183.346 31.3379 181.911 31.0468 180.565 30.4606C179.219 29.8745 178.042 29.0579 177.04 28.0028C176.037 26.9477 175.241 25.7106 174.659 24.2877C174.076 22.8647 173.781 21.3164 173.781 19.6387C173.781 17.9611 174.072 16.4128 174.659 14.9898C175.245 13.5668 176.037 12.3338 177.04 11.2949C178.042 10.2519 179.219 9.43936 180.565 8.85723C181.911 8.27106 183.346 7.98 184.87 7.98C186.621 7.98 188.096 8.36 189.289 9.12404C190.481 9.88808 191.472 10.7896 192.26 11.8285H192.337V2.11021H197.673V30.687H192.757V26.9921H192.68ZM191.823 17.1243C191.48 16.336 191.015 15.6528 190.433 15.0666C189.851 14.4804 189.163 14.0196 188.375 13.676C187.587 13.3323 186.75 13.1626 185.861 13.1626C184.971 13.1626 184.094 13.3323 183.31 13.676C182.521 14.0196 181.838 14.4804 181.252 15.0666C180.666 15.6528 180.209 16.336 179.882 17.1243C179.55 17.9125 179.384 18.7494 179.384 19.6387C179.384 20.5281 179.55 21.373 179.882 22.1734C180.213 22.9738 180.67 23.6651 181.252 24.2513C181.834 24.8374 182.521 25.2983 183.31 25.6419C184.098 25.9855 184.947 26.1553 185.861 26.1553C186.774 26.1553 187.587 25.9855 188.375 25.6419C189.163 25.2983 189.847 24.8334 190.433 24.2513C191.019 23.6691 191.48 22.9738 191.823 22.1734C192.167 21.373 192.337 20.5281 192.337 19.6387C192.337 18.7494 192.167 17.9125 191.823 17.1243Z" fill="#84A2FF"/>
    <path d="M208.568 37.2966C207.347 36.9287 206.263 36.4032 205.309 35.716C204.355 35.0287 203.555 34.204 202.908 33.2379C202.261 32.2717 201.796 31.1923 201.517 29.9998H207.193C207.626 30.9902 208.325 31.7785 209.287 32.3606C210.249 32.9428 211.308 33.2379 212.448 33.2379C213.285 33.2379 214.082 33.0802 214.829 32.7608C215.577 32.4415 216.232 32.0008 216.79 31.4268C217.348 30.8568 217.793 30.1777 218.124 29.3894C218.456 28.6011 218.621 27.74 218.621 26.7981V26.0381L218.508 25.9613C218.128 26.3938 217.704 26.8062 217.231 27.1983C216.762 27.5904 216.248 27.9543 215.686 28.2857C215.129 28.6172 214.526 28.876 213.875 29.066C213.229 29.256 212.537 29.353 211.798 29.353C210.249 29.353 208.798 29.0862 207.452 28.5526C206.106 28.0189 204.929 27.2751 203.927 26.3251C202.924 25.3711 202.136 24.2432 201.566 22.9334C200.996 21.6236 200.709 20.1966 200.709 18.6483C200.709 17.1 200.996 15.677 201.566 14.3794C202.136 13.0857 202.924 11.9579 203.927 11.0079C204.929 10.0538 206.106 9.31404 207.452 8.78042C208.798 8.24681 210.245 7.98 211.798 7.98C212.687 7.98 213.508 8.09319 214.255 8.32361C215.003 8.55404 215.67 8.83702 216.257 9.18063C216.843 9.52425 217.356 9.91638 217.801 10.3611C218.245 10.8057 218.609 11.2302 218.888 11.6385L219.001 11.5617V8.62681H223.804V27.1457C223.804 28.694 223.525 30.1251 222.967 31.4308C222.409 32.7406 221.621 33.8685 220.606 34.8226C219.592 35.7766 218.391 36.5164 217.004 37.05C215.618 37.5836 214.102 37.8504 212.452 37.8504C211.082 37.8504 209.784 37.6645 208.568 37.2966ZM214.834 24.3402C215.581 24.0208 216.236 23.5843 216.794 23.0264C217.352 22.4685 217.797 21.8136 218.128 21.0657C218.46 20.3179 218.625 19.5094 218.625 18.6443C218.625 17.7791 218.46 17.0111 218.128 16.2632C217.797 15.5153 217.352 14.8604 216.794 14.3026C216.236 13.7447 215.581 13.304 214.834 12.9887C214.086 12.6734 213.289 12.5117 212.452 12.5117C211.616 12.5117 210.819 12.6694 210.071 12.9887C209.324 13.3081 208.669 13.7447 208.111 14.3026C207.553 14.8604 207.108 15.5153 206.777 16.2632C206.445 17.0111 206.279 17.8074 206.279 18.6443C206.279 19.4811 206.445 20.3138 206.777 21.0657C207.108 21.8136 207.553 22.4685 208.111 23.0264C208.669 23.5843 209.324 24.0249 210.071 24.3402C210.819 24.6555 211.616 24.8172 212.452 24.8172C213.289 24.8172 214.086 24.6596 214.834 24.3402Z" fill="#84A2FF"/>
    <path d="M250.291 20.8757C250.238 21.2679 250.165 21.6843 250.06 22.1128H232.419C232.9 23.3336 233.676 24.3281 234.743 25.1043C235.81 25.8804 237.043 26.2685 238.438 26.2685C239.428 26.2685 240.342 26.0704 241.183 25.6783C242.02 25.2862 242.759 24.7445 243.394 24.0572H249.26C248.88 25.173 248.326 26.1836 247.602 27.0851C246.879 27.9866 246.046 28.7506 245.108 29.3732C244.166 29.9957 243.127 30.4768 241.983 30.8204C240.839 31.164 239.659 31.3338 238.442 31.3338C236.894 31.3338 235.394 31.0306 233.947 30.4202C232.499 29.8098 231.222 28.977 230.118 27.926C229.015 26.8708 228.129 25.6338 227.471 24.2108C226.812 22.7879 226.48 21.2638 226.48 19.6387C226.48 18.0136 226.799 16.4128 227.434 14.9898C228.069 13.5668 228.934 12.3338 230.025 11.2949C231.117 10.2519 232.394 9.43936 233.854 8.85723C235.313 8.27106 236.869 7.98 238.523 7.98C240.176 7.98 241.68 8.28319 243.115 8.89361C244.55 9.50404 245.808 10.3287 246.887 11.3717C247.966 12.4147 248.819 13.6436 249.438 15.0666C250.06 16.4896 250.372 18.0136 250.372 19.6387C250.372 20.0713 250.347 20.4836 250.295 20.8757H250.291ZM242.25 14.2257C241.159 13.4374 239.914 13.0453 238.515 13.0453C237.116 13.0453 235.911 13.4374 234.82 14.2257C233.728 15.014 232.952 16.0813 232.495 17.4274H244.575C244.118 16.0813 243.342 15.014 242.25 14.2257Z" fill="#84A2FF"/>
    <path fill-rule="evenodd" clip-rule="evenodd" d="M138.619 30.8406C140.964 30.9215 143.228 30.0725 144.966 28.496C146.664 26.9598 147.634 24.7768 147.553 22.513C147.553 19.5619 146.3 17.3789 143.794 15.9236C145.572 14.5491 146.583 12.4066 146.502 10.1832C146.583 7.95978 145.653 5.81723 143.996 4.36191C142.298 2.82574 140.075 2.01723 137.77 2.09808H126.451V27.0002C126.451 29.1428 128.189 30.8811 130.332 30.8811L138.619 30.8406ZM137.77 13.7002H132.111V7.3534H137.77C138.619 7.31298 139.387 7.63638 139.994 8.24276C141.166 9.53638 141.166 11.4768 139.994 12.7704C139.387 13.3768 138.579 13.7002 137.77 13.7002ZM138.619 25.5449H132.111V18.7534H138.619C139.509 18.713 140.358 19.0768 141.004 19.7236C141.651 20.3704 141.975 21.2598 141.934 22.1491C141.975 23.0385 141.611 23.9279 141.004 24.5747C140.358 25.2215 139.509 25.5449 138.619 25.5449Z" fill="#84A2FF"/>
  </g>
  <defs>
    <linearGradient id="paint0_linear_530_422" x1="19.4448" y1="0" x2="22.7771" y2="9.41169" gradientUnits="userSpaceOnUse">
      <stop offset="0.192708" stop-color="#9DB8FF"/>
      <stop offset="0.640625" stop-color="#3555FE"/>
      <stop offset="1" stop-color="#0C20E7"/>
    </linearGradient>
    <clipPath id="clip0_530_422">
      <rect width="250.638" height="38" fill="white"/>
    </clipPath>
  </defs>
</svg>
