<svg xmlns="http://www.w3.org/2000/svg" width="235" height="30" viewBox="0 0 235 30" fill="none">
  <g clip-path="url(#clip0_530_515)">
    <path fill-rule="evenodd" clip-rule="evenodd" d="M15.3399 24.2775V29.2757H3.55111C1.58817 29.2757 0 27.6876 0 25.7246V0.785248H5.22833V22.5001C5.22833 23.4797 6.02241 24.2738 7.00203 24.2775H15.3399ZM22.9542 10.3402V29.2646H18.0672V10.3402H22.9542ZM32.3088 29.2646V19.0492C32.3088 17.4833 32.6873 16.3107 33.4442 15.5277C34.2457 14.7262 35.3441 14.2995 36.4759 14.3514C37.4814 14.3032 38.4648 14.6669 39.1995 15.357C39.8823 16.025 40.2236 16.9934 40.2236 18.2551V29.2757H45.1106V17.6465C45.1106 15.1975 44.4352 13.2791 43.0846 11.8913C41.7413 10.5035 39.8711 9.74651 37.9416 9.80959C35.3664 9.80959 33.4851 10.6927 32.2976 12.459V10.3402H27.4218V29.2646H32.3088ZM79.501 29.8064C82.1505 29.8064 84.2062 28.8861 85.6719 27.0419V29.2683H90.5588V10.3439H85.6719V12.5703C84.2099 10.7261 82.1542 9.80217 79.501 9.80588C77.0186 9.78733 74.6512 10.8412 73.0037 12.7002C69.3932 16.7448 69.3932 22.86 73.0037 26.9046C74.6475 28.7674 77.0186 29.8249 79.501 29.8064ZM80.4102 25.1458C79.0075 25.1903 77.6494 24.6523 76.6587 23.6615C75.6605 22.6262 75.1262 21.2347 75.1744 19.7987C75.1225 18.3701 75.6605 16.9786 76.6587 15.9545C77.6494 14.96 79.0075 14.422 80.4102 14.4702C81.8165 14.4257 83.1783 14.96 84.1765 15.9545C86.1691 18.1289 86.1691 21.4685 84.1765 23.643C83.182 24.6411 81.8202 25.1866 80.4102 25.1458ZM66.7957 25.7543C65.3931 28.029 62.3058 29.8064 58.6694 29.8064C55.5376 29.8064 53.0254 28.8602 51.133 26.964C49.2406 25.0679 48.2943 22.6819 48.2906 19.8061C48.2164 17.1456 49.2257 14.5667 51.0922 12.6668C52.9624 10.7595 55.3632 9.80588 58.2909 9.80959C60.892 9.73538 63.3967 10.7892 65.163 12.6965C66.9701 14.6186 67.946 17.179 67.8718 19.8173C67.8681 20.4889 67.805 21.1642 67.6826 21.8247H53.4039C54.0607 24.1996 55.8381 25.387 58.7436 25.387C60.6137 25.387 62.0275 24.7562 62.9849 23.4908H67.6826C67.5378 24.296 67.2373 25.0641 66.7957 25.7543ZM53.3297 18.025H62.9774C62.7919 16.8821 62.1759 15.8543 61.2557 15.1492C60.3948 14.5221 59.3521 14.1919 58.2872 14.203C57.1183 14.1585 55.968 14.511 55.0292 15.2049C54.1461 15.9136 53.5449 16.9118 53.3297 18.025ZM99.8763 20.2254V29.2757H94.9894V10.3513H99.8763V13.6056C100.281 12.459 101.079 11.4905 102.129 10.8783C103.197 10.2697 104.407 9.95431 105.635 9.96915V15.4238C104.236 15.2272 102.815 15.55 101.639 16.3329C100.463 17.1085 99.8763 18.4072 99.8763 20.2254Z" fill="#0E0C24"/>
    <path d="M31.5257 0.929957C31.5257 3.40497 29.6147 5.46068 27.1471 5.64621H17.8259V5.49408C17.8259 3.01906 19.7369 0.959642 22.2082 0.774109H31.5257V0.929957Z" fill="url(#paint0_linear_530_515)"/>
    <path fill-rule="evenodd" clip-rule="evenodd" d="M127.18 28.99C129.328 29.0457 131.417 28.2776 133.016 26.8378C134.582 25.4389 135.447 23.424 135.388 21.3275C135.388 18.6336 134.233 16.6187 131.922 15.2865C133.547 14.0249 134.471 12.0583 134.408 10.0025C134.464 7.9691 133.618 6.01358 132.092 4.66289C130.53 3.25655 128.489 2.507 126.389 2.56637H115.999V25.4389C115.999 27.4019 117.587 28.99 119.55 28.99H127.18ZM126.389 13.2494H121.194V7.43476H126.389C127.154 7.40879 127.892 7.71306 128.419 8.26595C129.488 9.44223 129.488 11.2419 128.419 12.4182C127.888 12.9674 127.154 13.2716 126.389 13.2494ZM127.18 24.1179H121.19V17.8914H127.18C128 17.8692 128.79 18.1883 129.361 18.7783C129.944 19.372 130.256 20.1735 130.23 21.0047C130.252 21.8321 129.94 22.6374 129.361 23.2311C128.79 23.8211 128 24.1439 127.18 24.1179ZM145.362 29.5169C147.922 29.5169 149.792 28.6375 150.972 26.8749V28.99H155.833V10.099H150.972V20.2922C150.972 21.8507 150.601 23.0196 149.859 23.8025C149.065 24.5966 147.97 25.0233 146.846 24.9714C145.844 25.0196 144.865 24.6597 144.134 23.9732C143.454 23.3053 143.117 22.3442 143.117 21.0863V10.099H138.252V21.6874C138.252 24.1291 138.924 26.0438 140.267 27.4278C141.595 28.8119 143.451 29.5726 145.369 29.5169H145.362ZM162.835 7.13049C163.637 7.14162 164.409 6.8225 164.965 6.24364C165.537 5.69817 165.856 4.94119 165.848 4.15082C165.852 3.35674 165.533 2.59234 164.965 2.03574C164.416 1.44946 163.641 1.11921 162.835 1.13034C162.041 1.12663 161.284 1.45317 160.746 2.03574C160.175 2.59234 159.856 3.35303 159.859 4.15082C159.893 5.77609 161.203 7.08596 162.828 7.11936L162.835 7.13049ZM165.14 29.0234V10.099H160.282V28.9752L165.14 29.0234ZM174.442 29.0234V1.43461H169.585V28.99L174.442 29.0234ZM187.059 29.5503C189.697 29.5503 191.734 28.6301 193.163 26.7933V29.0197H198.02V2.56637H193.163V12.344C191.73 10.5072 189.697 9.58695 187.059 9.58695C184.576 9.56097 182.205 10.6148 180.565 12.4738C176.973 16.5073 176.973 22.5965 180.565 26.63C182.205 28.4891 184.576 29.5429 187.059 29.5169V29.5503ZM187.964 24.9083C186.558 24.9454 185.2 24.4111 184.198 23.424C183.203 22.3962 182.665 21.0084 182.713 19.5761C182.661 18.1475 183.196 16.7634 184.198 15.7429C185.188 14.7522 186.546 14.2141 187.945 14.2587C189.341 14.2141 190.691 14.7522 191.675 15.7429C193.634 17.9211 193.634 21.2273 191.675 23.4055C190.695 24.3888 189.352 24.9194 187.964 24.8749V24.9083ZM228.277 29.0234V19.9657C228.277 18.1549 228.859 16.8599 230.028 16.0806C231.197 15.2977 232.611 14.9748 234.002 15.1752V9.72795C232.781 9.7094 231.575 10.0248 230.518 10.6334C229.479 11.2456 228.689 12.2104 228.291 13.3496V10.099H223.419V28.9752L228.277 29.0234ZM219.434 25.7543C218.031 28.029 214.944 29.8064 211.308 29.8064C208.176 29.8064 205.664 28.8602 203.771 26.964C201.879 25.0679 200.933 22.6819 200.929 19.8061C200.855 17.1456 201.864 14.5667 203.731 12.6668C205.601 10.7595 208.002 9.80588 210.929 9.80959C213.53 9.73538 216.035 10.7892 217.801 12.6965C219.609 14.6186 220.584 17.179 220.51 19.8173C220.507 20.4889 220.443 21.1642 220.321 21.8247H206.042C206.699 24.1996 208.477 25.387 211.382 25.387C213.252 25.387 214.666 24.7562 215.623 23.4908H220.321C220.176 24.296 219.876 25.0641 219.434 25.7543ZM205.968 18.025H215.616C215.43 16.8821 214.814 15.8543 213.894 15.1492C213.033 14.5221 211.991 14.1919 210.926 14.203C209.757 14.1585 208.606 14.511 207.668 15.2049C206.784 15.9136 206.183 16.9118 205.968 18.025Z" fill="#84A2FF"/>
  </g>
  <defs>
    <linearGradient id="paint0_linear_530_515" x1="17.8259" y1="0.774109" x2="20.9022" y2="9.42429" gradientUnits="userSpaceOnUse">
      <stop offset="0.192708" stop-color="#9DB8FF"/>
      <stop offset="0.640625" stop-color="#3555FE"/>
      <stop offset="1" stop-color="#0C20E7"/>
    </linearGradient>
    <clipPath id="clip0_530_515">
      <rect width="234.194" height="30" fill="white"/>
    </clipPath>
  </defs>
</svg>
