<svg xmlns="http://www.w3.org/2000/svg" width="212" height="30" viewBox="0 0 212 30" fill="none">
  <g clip-path="url(#clip0_530_327)">
    <path fill-rule="evenodd" clip-rule="evenodd" d="M80.7852 9.13847C83.2804 9.13847 85.242 9.94726 86.7052 11.5477L87.0316 11.9263V9.67191H91.9708V28.8258H87.0316V26.5714L86.7052 26.9501C85.242 28.5505 83.2804 29.3593 80.7852 29.3593C78.2379 29.3593 76.0351 28.3784 74.211 26.4337C72.3867 24.4719 71.4746 22.0798 71.4746 19.2575C71.4746 16.4352 72.3867 14.0259 74.211 12.0812C76.0523 10.1021 78.2379 9.13847 80.7852 9.13847ZM59.3422 9.13847C62.1473 9.13847 64.4705 10.1021 66.2947 12.0468C68.1189 13.9914 69.031 16.3835 69.031 19.2403C69.031 19.6705 68.9966 20.1007 68.9449 20.5654L68.8417 21.2709H54.403C55.0742 23.6631 56.864 24.8677 59.8068 24.8677C61.6998 24.8677 63.1282 24.2309 64.0919 22.9575H68.8417C68.5319 24.1965 68.463 24.3686 67.9468 25.2635C66.5356 27.5696 63.4035 29.3593 59.7207 29.3593C56.5542 29.3593 54.0073 28.3956 52.097 26.4854C50.1868 24.5752 49.2231 22.1658 49.2231 19.2403C49.2231 16.3491 50.1696 13.9398 52.0626 12.0124C53.9556 10.0849 56.3822 9.13847 59.3422 9.13847ZM5.68363 0.000305176V21.357C5.68363 22.6821 6.75062 23.7491 8.07573 23.7491H15.9059V28.8086H5.18457C2.53433 28.8086 0.400391 26.6575 0.400391 24.0245V0.000305176H5.68363ZM23.6157 9.67191V28.8258H18.6766V9.67191H23.6157ZM38.777 9.13847C40.8766 9.13847 42.5975 9.84399 43.9742 11.238C45.351 12.6319 46.0222 14.5765 46.0222 17.0547V28.8086H41.0831V17.6742L41.0659 17.2096C40.997 16.1598 40.6529 15.3337 40.0506 14.7486C39.3622 14.0775 38.4501 13.7333 37.297 13.7333C36.0236 13.7333 34.991 14.1291 34.2338 14.9208C33.4594 15.7124 33.0808 16.8998 33.0808 18.4831V28.8258H28.1418V9.67191H33.0808V11.8231L33.3218 11.4789C34.5264 9.91287 36.3506 9.13847 38.777 9.13847ZM107.218 9.27615V14.7831L106.72 14.7486C105.412 14.6798 104.224 15.0068 103.174 15.7124C101.987 16.504 101.401 17.8119 101.401 19.6533V28.8086H96.4628V9.67191H101.401V12.9589L101.591 12.5114C102.056 11.5133 102.761 10.7389 103.691 10.2054C104.74 9.58591 105.911 9.27615 107.218 9.27615ZM81.714 13.8365C80.1826 13.8365 78.9262 14.3357 77.9282 15.3509C76.93 16.3663 76.431 17.657 76.431 19.2403C76.431 20.8235 76.93 22.1314 77.9282 23.1468C78.9262 24.1449 80.1826 24.644 81.714 24.644C83.246 24.644 84.5196 24.1449 85.5172 23.1296C86.5324 22.1142 87.0316 20.8235 87.0316 19.2403C87.0316 17.657 86.5324 16.3663 85.5172 15.3509C84.5196 14.3529 83.246 13.8365 81.714 13.8365ZM59.3422 13.5785C58.017 13.5785 56.9156 13.9226 56.0552 14.5937C55.2979 15.1789 54.7645 15.9877 54.4547 17.0031L54.3342 17.4505H64.1091C63.8338 16.1426 63.2486 15.1789 62.371 14.5421C61.4761 13.8882 60.4607 13.5785 59.3422 13.5785Z" fill="#141B2D"/>
    <path d="M32.2714 0.15392C32.2714 2.676 30.3184 4.74232 27.8412 4.92496L27.4851 4.93936H18.418V4.78544C18.418 2.26336 20.371 0.19704 22.8481 0.0143997L23.2057 0H32.2714V0.15392Z" fill="url(#paint0_linear_530_327)"/>
    <path d="M133.238 29.0668L142.273 2.25472H136.491L129.985 22.8542L123.446 2.25472H117.698L126.699 29.0668H133.238ZM152.925 29.6002C155.61 29.6002 157.693 28.671 159.173 26.8123V29.0668H164.112V9.9128H159.173V12.1673C157.693 10.3086 155.61 9.37936 152.925 9.37936C150.379 9.37936 148.176 10.3602 146.352 12.305C144.528 14.2496 143.616 16.6589 143.616 19.4812C143.616 22.3035 144.528 24.7128 146.352 26.6574C148.176 28.6021 150.379 29.6002 152.925 29.6002ZM153.855 24.8849C152.323 24.8849 151.067 24.3858 150.069 23.3877C149.071 22.3723 148.572 21.0645 148.572 19.4812C148.572 17.8979 149.071 16.6073 150.069 15.5919C151.067 14.5766 152.323 14.0775 153.855 14.0775C155.386 14.0775 156.66 14.5766 157.658 15.5919C158.673 16.6073 159.173 17.8979 159.173 19.4812C159.173 21.0645 158.673 22.3551 157.658 23.3705C156.66 24.3858 155.386 24.8849 153.855 24.8849ZM175.539 29.6002C178.137 29.6002 180.048 28.7054 181.252 26.9156V29.0668H186.191V9.9128H181.252V20.2556C181.252 21.8389 180.873 23.0263 180.099 23.8179C179.325 24.6096 178.309 25.0054 177.036 25.0054C175.883 25.0054 174.971 24.6612 174.282 23.99C173.594 23.3189 173.249 22.3379 173.249 21.0645V9.9128H168.311V21.6668C168.311 24.1449 168.999 26.0896 170.359 27.4835C171.701 28.8946 173.439 29.6002 175.539 29.6002ZM195.639 29.0668V1.10168H190.7V29.0668H195.639ZM203.934 28.103C205.328 29.1184 207.72 29.4454 211.11 29.0668V24.5923C210.164 24.644 209.372 24.644 208.735 24.6096C208.098 24.5751 207.617 24.403 207.273 24.0933C206.945 23.7835 206.773 23.3017 206.773 22.6305V14.6626H211.093V9.9128H206.773V4.54352L201.834 6.04073V9.9128H198.496V14.6626H201.834V22.6305C201.852 25.2635 202.54 27.0877 203.934 28.103Z" fill="#84A2FF"/>
  </g>
  <defs>
    <linearGradient id="paint0_linear_530_327" x1="18.418" y1="0" x2="21.5429" y2="8.76454" gradientUnits="userSpaceOnUse">
      <stop offset="0.192708" stop-color="#9DB8FF"/>
      <stop offset="0.640625" stop-color="#3555FE"/>
      <stop offset="1" stop-color="#0C20E7"/>
    </linearGradient>
    <clipPath id="clip0_530_327">
      <rect width="211.2" height="29.6003" fill="white"/>
    </clipPath>
  </defs>
</svg>
