<svg width="286" height="38" viewBox="0 0 286 38" fill="none" xmlns="http://www.w3.org/2000/svg">
<path fill-rule="evenodd" clip-rule="evenodd" d="M79.5835 10.0207C82.1088 10.0207 84.0808 10.8511 85.5279 12.4837L85.7549 12.7652V10.5556H90.6353V29.3163H85.7549V27.1067L85.5279 27.3882C84.785 28.2078 83.8672 28.853 82.8414 29.2766C81.8155 29.7002 80.7074 29.8917 79.5976 29.837C77.0723 29.837 74.9159 28.88 73.0999 26.9659C71.3045 25.0626 70.3362 22.5348 70.4043 19.9289C70.4043 17.1563 71.2981 14.8059 73.0999 12.8919C73.9126 11.9796 74.9133 11.2512 76.0343 10.7559C77.1553 10.2605 78.3705 10.0098 79.5976 10.0207H79.5835ZM58.402 10.0207C61.1827 10.0207 63.4668 10.9778 65.2686 12.8778C67.074 14.7816 68.048 17.316 67.9783 19.9289C67.9783 20.4074 67.9358 20.9 67.8648 21.4067L67.7939 21.9274H53.5216C54.1742 24.2778 55.9618 25.4459 58.856 25.4459C60.601 25.4459 61.9488 24.9111 62.8993 23.8133L63.0979 23.5741H67.7797C67.6383 24.3747 67.3394 25.1399 66.9001 25.8259C65.4956 28.0778 62.4169 29.837 58.785 29.837C55.6638 29.837 53.1527 28.9082 51.2658 27.0222C50.3298 26.0947 49.5951 24.9868 49.1071 23.7669C48.6191 22.5469 48.3881 21.2408 48.4284 19.9289C48.3786 18.6145 48.6029 17.304 49.0873 16.0796C49.5716 14.8551 50.3055 13.7431 51.2431 12.813C52.1806 11.8829 53.3016 11.1548 54.5359 10.6744C55.7702 10.1939 57.0912 9.97139 58.4162 10.0207H58.402ZM5.39862 1.08371V22.9548C5.39862 23.3281 5.54809 23.6861 5.81415 23.95C6.08022 24.2139 6.44107 24.3622 6.81734 24.3622H15.4999V29.3163H3.01517C2.26264 29.3163 1.54092 29.0197 1.0088 28.4919C0.476676 27.964 0.177734 27.248 0.177734 26.5015V1.08371H5.39862ZM23.1184 10.5556V29.3163H18.238V10.5556H23.1184ZM38.1001 10.0207C40.1714 10.0207 41.8881 10.7245 43.2359 12.0896C43.9349 12.8604 44.473 13.761 44.8188 14.7394C45.1646 15.7178 45.3113 16.7546 45.2504 17.7896V29.3163H40.3701V18.057C40.3701 17.1138 40.0043 16.2067 39.3486 15.5237C38.9842 15.1868 38.5554 14.926 38.0874 14.7568C37.6195 14.5875 37.122 14.5133 36.6246 14.5385C35.362 14.5385 34.3547 14.9185 33.6028 15.6926C32.8508 16.4667 32.4678 17.6348 32.4678 19.183V29.3163H27.5874V10.5556H32.4678V12.6526L32.6664 12.3711C33.8581 10.823 35.6741 10.0207 38.1001 10.0207ZM105.716 10.1756V15.58L105.347 15.5519C104.066 15.4442 102.785 15.7717 101.715 16.4807C100.552 17.2548 99.9563 18.5496 99.9563 20.3511V29.3163H95.0759V10.5556H99.9563V13.7785L100.098 13.4548C100.552 12.4133 101.261 11.6252 102.212 11.0763C103.278 10.4699 104.488 10.1588 105.716 10.1756ZM80.5198 14.637C79.8178 14.6124 79.1183 14.7334 78.4661 14.9921C77.8139 15.2508 77.2232 15.6417 76.7319 16.1397C76.2405 16.6377 75.8593 17.2319 75.6126 17.8844C75.3659 18.5368 75.259 19.2332 75.2989 19.9289C75.2989 21.477 75.7813 22.7578 76.7744 23.757C77.7533 24.7422 79.0018 25.2207 80.5198 25.2207C81.2219 25.2408 81.9206 25.117 82.5723 24.857C83.2239 24.5971 83.8146 24.2066 84.3072 23.7099C84.7999 23.2133 85.184 22.6212 85.4355 21.9706C85.687 21.32 85.8006 20.625 85.7691 19.9289C85.8006 19.2328 85.687 18.5378 85.4355 17.8872C85.184 17.2366 84.7999 16.6445 84.3072 16.1479C83.8146 15.6512 83.2239 15.2607 82.5723 15.0008C81.9206 14.7408 81.2219 14.617 80.5198 14.637ZM58.4162 14.3837C57.1109 14.3837 56.0185 14.7074 55.1673 15.3689C54.4012 15.9741 53.8621 16.7763 53.5499 17.8178L53.4648 18.1696H63.1121C62.933 17.0789 62.3583 16.0906 61.4961 15.3908C60.6339 14.691 59.5436 14.3278 58.4303 14.3696L58.4162 14.3837Z" fill="#0E0C24"/>
<path d="M31.9902 0.943973C31.9902 3.43978 30.0421 5.48458 27.571 5.66531L27.2157 5.67956H18.1709V5.52725C18.1709 3.03144 20.1191 0.986644 22.5901 0.805906L22.9469 0.791656H31.9902V0.943973Z" fill="url(#paint0_linear_530_468)"/>
<path fill-rule="evenodd" clip-rule="evenodd" d="M132.502 29.5274V24.4467H121.294V18.3948H131.352V13.3985H121.28V7.6563H132.303V2.58963H116.044V26.7126C116.044 28.2607 117.321 29.5274 118.882 29.5274H132.502ZM139.553 29.5274L143.695 23.6726L147.81 29.5274H153.456L146.504 19.6756L153.158 10.2741H147.526L143.695 15.7067L139.865 10.2741H134.19L140.858 19.7037L133.906 29.5274H139.553ZM164.934 30.0622C166.689 30.0851 168.418 29.6302 169.931 28.7468C171.444 27.8635 172.684 26.5855 173.517 25.0519C173.871 24.2637 174.056 23.4474 174.056 22.603H169.261C168.889 23.3832 168.285 24.0315 167.53 24.4607C166.728 24.9189 165.816 25.1524 164.891 25.1363C163.43 25.1363 162.195 24.6437 161.245 23.6585C160.763 23.1596 160.387 22.57 160.139 21.9247C159.89 21.2793 159.774 20.5912 159.798 19.9007C159.798 18.3526 160.28 17.1 161.245 16.1007C161.715 15.6152 162.282 15.2329 162.91 14.9783C163.538 14.7238 164.213 14.6027 164.891 14.623C165.856 14.623 166.735 14.8622 167.487 15.3267C168.267 15.777 168.835 16.4104 169.218 17.2126H174.056C174.056 16.4807 173.857 15.6363 173.432 14.7074C172.654 13.1999 171.458 11.9447 169.984 11.0904C168.458 10.1885 166.71 9.72106 164.934 9.73926C162.068 9.73926 159.684 10.7244 157.769 12.6667C156.828 13.621 156.089 14.7529 155.597 15.9955C155.105 17.2381 154.869 18.5661 154.903 19.9007C154.903 22.7719 155.854 25.1926 157.769 27.1348C158.692 28.091 159.806 28.8453 161.039 29.3495C162.273 29.8536 163.6 30.0964 164.934 30.0622ZM181.149 29.5274V19.1407C181.149 17.5363 181.533 16.3541 182.284 15.5519C182.677 15.1511 183.15 14.8372 183.673 14.631C184.197 14.4248 184.758 14.331 185.321 14.3556C186.455 14.3556 187.378 14.7074 188.059 15.383C188.74 16.0585 189.094 17.0437 189.094 18.3244V29.5274H193.989V17.7052C193.989 15.2141 193.308 13.2719 191.96 11.8504C191.3 11.1581 190.5 10.6122 189.613 10.2483C188.725 9.8845 187.77 9.71101 186.81 9.73926C184.228 9.73926 182.341 10.64 181.149 12.4415V2.58963H176.255V29.5274H181.149ZM206.403 30.0622C209.07 30.0622 211.127 29.1333 212.602 27.2474V29.5274H217.497V10.2741H212.602V12.5541C211.874 11.6247 210.929 10.8835 209.85 10.3935C208.771 9.90348 207.588 9.67904 206.403 9.73926C205.166 9.73306 203.943 9.99426 202.818 10.5047C201.694 11.0151 200.695 11.7625 199.891 12.6948C198.084 14.6597 197.113 17.2418 197.181 19.9007C197.181 22.7578 198.089 25.1504 199.891 27.1207C200.697 28.0542 201.698 28.8021 202.825 29.3125C203.952 29.823 205.178 30.0836 206.417 30.0763L206.403 30.0622ZM207.325 25.3333C206.627 25.3545 205.933 25.2315 205.286 24.9723C204.638 24.713 204.053 24.3232 203.565 23.8274C203.068 23.3026 202.681 22.6856 202.425 22.0117C202.169 21.3378 202.051 20.6204 202.076 19.9007C202.076 18.3104 202.572 17.0156 203.565 16.0022C204.05 15.5025 204.635 15.1091 205.283 14.8473C205.93 14.5856 206.626 14.4612 207.325 14.4822C208.843 14.4822 210.106 14.9889 211.099 16.0022C211.6 16.5188 211.991 17.1302 212.25 17.7999C212.508 18.4697 212.628 19.1841 212.602 19.9007C212.63 20.6197 212.511 21.3368 212.253 22.0091C211.994 22.6814 211.602 23.2951 211.099 23.8133C210.106 24.8267 208.829 25.3333 207.325 25.3333ZM226.846 29.5274V19.1267C226.846 17.5363 227.229 16.3541 227.981 15.5519C228.374 15.1511 228.847 14.8372 229.37 14.631C229.894 14.4248 230.455 14.331 231.017 14.3556C232.152 14.3556 233.075 14.7074 233.756 15.383C234.437 16.0585 234.777 17.0437 234.777 18.3244V29.5274H239.686V17.7052C239.686 15.2141 239.005 13.2719 237.657 11.8504C236.997 11.1581 236.197 10.6122 235.31 10.2483C234.422 9.8845 233.467 9.71101 232.507 9.73926C229.925 9.73926 228.038 10.64 226.832 12.4415V10.2741H221.938V29.5274H226.846ZM253.277 37.7607C256.015 37.7607 258.356 36.9867 260.286 35.4244C262.229 33.8481 263.194 31.5822 263.194 28.5985V10.2741H258.413V12.6667C257.724 11.7146 256.807 10.9482 255.744 10.437C254.681 9.92577 253.507 9.68594 252.327 9.73926C249.674 9.73926 247.432 10.7104 245.602 12.6244C243.803 14.4992 242.824 17.0033 242.878 19.5911C242.878 22.3356 243.786 24.6578 245.588 26.5859C246.441 27.5111 247.483 28.2447 248.646 28.7374C249.808 29.2302 251.063 29.4707 252.327 29.443C253.505 29.4979 254.679 29.2602 255.742 28.7515C256.805 28.2428 257.723 27.4791 258.413 26.5296V28.5985C258.413 30.1185 257.973 31.2726 257.079 32.117C256.2 32.9333 254.98 33.3415 253.433 33.3415C251.078 33.3415 249.418 32.4407 248.468 30.6393L244.282 33.0741C245.086 34.5812 246.34 35.8051 247.872 36.5785C249.432 37.3667 251.234 37.7607 253.277 37.7607ZM276.175 9.61259C278.956 9.61259 281.24 10.5696 283.042 12.4696C284.847 14.3734 285.821 16.9078 285.752 19.5207C285.752 19.9993 285.709 20.4778 285.638 20.9985L285.567 21.5193H271.295C271.962 23.8696 273.735 25.0378 276.629 25.0378C278.374 25.0378 279.722 24.503 280.673 23.4052L280.871 23.1659H285.553C285.269 24.3763 285.184 24.5452 284.673 25.4178C283.269 27.6696 280.19 29.4289 276.558 29.4289C273.437 29.4289 270.926 28.5 269.039 26.6141C268.103 25.6865 267.368 24.5786 266.88 23.3587C266.392 22.1388 266.161 20.8326 266.202 19.5207C266.15 18.2058 266.373 16.8944 266.856 15.669C267.34 14.4436 268.074 13.3307 269.012 12.4001C269.95 11.4696 271.072 10.7416 272.307 10.2619C273.542 9.78219 274.864 9.56112 276.189 9.61259H276.175ZM253.093 14.3556C253.796 14.3261 254.497 14.441 255.153 14.6931C255.809 14.9452 256.406 15.3291 256.905 15.8207C257.405 16.3122 257.797 16.9009 258.056 17.5497C258.316 18.1985 258.437 18.8935 258.413 19.5911C258.413 21.1393 257.916 22.4059 256.909 23.3911C255.916 24.3763 254.639 24.8689 253.093 24.8689C252.388 24.8911 251.686 24.773 251.028 24.5216C250.37 24.2702 249.77 23.8906 249.262 23.4052C248.769 22.9038 248.383 22.3088 248.127 21.6558C247.871 21.0029 247.75 20.3054 247.773 19.6052C247.746 18.9064 247.866 18.2099 248.125 17.5594C248.383 16.9089 248.775 16.3185 249.275 15.8254C249.774 15.3323 250.372 14.9472 251.029 14.6942C251.686 14.4412 252.389 14.3259 253.093 14.3556ZM276.175 13.9756C274.87 13.9756 273.778 14.2993 272.926 14.9607C272.16 15.5659 271.621 16.3681 271.309 17.4096L271.224 17.7615H280.871C280.587 16.4948 280.02 15.5378 279.155 14.9044C278.289 14.2832 277.244 13.9572 276.175 13.9756Z" fill="#84A2FF"/>
<defs>
<linearGradient id="paint0_linear_530_468" x1="18.1709" y1="0.791656" x2="21.2441" y2="9.48046" gradientUnits="userSpaceOnUse">
<stop offset="0.192708" stop-color="#9DB8FF"/>
<stop offset="0.640625" stop-color="#3555FE"/>
<stop offset="1" stop-color="#0C20E7"/>
</linearGradient>
</defs>
</svg>
