<svg width="296" height="35" viewBox="0 0 296 35" fill="none" xmlns="http://www.w3.org/2000/svg">
<path fill-rule="evenodd" clip-rule="evenodd" d="M15.452 23.9041V28.9307H3.61158C1.63817 28.9307 0.0371094 27.3296 0.0371094 25.3562V0.334961H5.28711V22.1169C5.28711 23.085 6.06903 23.9041 7.07434 23.9041H15.452ZM23.085 9.94135V28.9307H18.1701V9.94135H23.085ZM32.468 28.9307V18.6914C32.468 17.1275 32.8403 15.936 33.6222 15.1541C34.4414 14.335 35.5212 13.9254 36.6754 13.9626C37.6807 13.9254 38.6861 14.2605 39.3935 14.9679C40.0637 15.6382 40.4361 16.6062 40.4361 17.8722V28.9307H45.3509V17.2765C45.3509 14.819 44.6807 12.8828 43.3031 11.5052C41.9626 10.1275 40.0637 9.3456 38.1275 9.42007C35.5584 9.42007 33.6595 10.3137 32.468 12.0637V9.94135H27.5903V28.9307H32.468ZM79.8297 29.452C82.4733 29.452 84.5584 28.5211 86.0105 26.6594V28.8935H90.9254V9.90411H86.0105V12.1382C84.5584 10.2765 82.4733 9.3456 79.8297 9.3456C77.335 9.30837 74.952 10.3882 73.3137 12.2499C69.702 16.3084 69.702 22.452 73.3137 26.5105C74.952 28.4094 77.335 29.4892 79.8297 29.452ZM80.7605 24.7605C79.3456 24.7977 78.0052 24.2765 76.9999 23.2711C75.9946 22.2286 75.4733 20.8509 75.5105 19.3988C75.4733 17.9467 75.9946 16.569 76.9999 15.5265C78.0052 14.5211 79.3456 13.9999 80.7605 14.0371C82.1754 13.9999 83.5531 14.5211 84.5584 15.5265C86.569 17.7233 86.569 21.0743 84.5584 23.2339C83.5158 24.2765 82.1382 24.835 80.7605 24.7605ZM67.0956 25.3935C65.6807 27.6648 62.5903 29.452 58.9414 29.452C55.8137 29.452 53.2818 28.4839 51.3829 26.585C49.4839 24.686 48.5158 22.303 48.5158 19.3988C48.4414 16.7179 49.4467 14.1488 51.3084 12.2499C53.1701 10.3509 55.5903 9.38284 58.5318 9.38284C61.1382 9.30837 63.6701 10.3509 65.4201 12.2871C67.2446 14.2233 68.2126 16.7924 68.1382 19.436C68.1382 20.1062 68.0637 20.7764 67.952 21.4467H53.6169C54.2871 23.8296 56.0743 25.0211 58.9786 25.0211C60.8403 25.0211 62.2924 24.3881 63.2233 23.1222H67.952C67.8403 23.9413 67.5052 24.686 67.0956 25.3935ZM53.5797 17.6488H63.2605C63.0743 16.4945 62.4414 15.452 61.5477 14.7445C60.6914 14.1116 59.6488 13.7765 58.569 13.8137C57.4148 13.7765 56.2605 14.1116 55.2924 14.819C54.3988 15.5264 53.7658 16.5318 53.5797 17.6488ZM100.271 19.8456V28.9307H95.3563V9.94135H100.271V13.2179C100.681 12.0637 101.463 11.0956 102.542 10.4626C103.622 9.86688 104.814 9.53177 106.08 9.53177V15.0052C104.665 14.819 103.25 15.1169 102.058 15.936C100.867 16.7179 100.271 18.0211 100.271 19.8456Z" fill="#0E0C24"/>
<path d="M31.6857 0.483895C31.6857 2.97858 29.7867 5.02645 27.292 5.21262H26.9197H17.9463V5.06369C17.9463 2.56901 19.8825 0.521131 22.3399 0.334961H22.7122H31.7229L31.6857 0.483895Z" fill="url(#paint0_linear_530_374)"/>
<path fill-rule="evenodd" clip-rule="evenodd" d="M134.563 28.6703H119.707C117.957 28.6703 116.505 27.2554 116.505 25.4681V2.42025H121.457V22.7128C121.457 23.383 121.978 23.9043 122.648 23.9043H134.563V28.6703Z" fill="#84A2FF"/>
<path fill-rule="evenodd" clip-rule="evenodd" d="M136.164 4.43089C136.164 3.64897 136.425 3.016 136.984 2.45749C137.505 1.93621 138.175 1.63834 138.957 1.63834C139.739 1.63834 140.372 1.89898 140.93 2.45749C141.452 2.97877 141.75 3.64897 141.75 4.43089C141.75 5.2128 141.489 5.84579 140.93 6.4043C140.409 6.92558 139.739 7.22344 138.957 7.22344C138.175 7.22344 137.542 6.96281 136.984 6.4043C136.462 5.88302 136.164 5.2128 136.164 4.43089ZM141.414 8.41494V28.6703H136.5V8.41494H141.414Z" fill="#84A2FF"/>
<path fill-rule="evenodd" clip-rule="evenodd" d="M161.633 8.41494H166.138V34.6649H161.223V25.7288H161.148C160.441 26.6968 159.51 27.516 158.43 28.2234C157.351 28.9309 155.973 29.266 154.372 29.266C152.957 29.266 151.654 29.0054 150.425 28.4469C149.196 27.9256 148.117 27.1809 147.186 26.2128C146.255 25.2447 145.547 24.1277 144.989 22.8245C144.468 21.5213 144.17 20.1064 144.17 18.5426C144.17 17.016 144.43 15.5639 144.989 14.2607C145.51 12.9575 146.255 11.8032 147.186 10.8351C148.117 9.86706 149.196 9.12238 150.425 8.56387C151.654 8.04259 152.994 7.74472 154.372 7.74472C155.228 7.74472 156.01 7.85643 156.718 8.0426C157.425 8.266 158.095 8.52663 158.691 8.89897C159.287 9.27131 159.808 9.68089 160.292 10.1649C160.776 10.649 161.186 11.1703 161.558 11.6915H161.633V8.41494ZM161.26 18.5426C161.26 17.7234 161.111 16.9415 160.776 16.2341C160.478 15.5266 160.031 14.8937 159.51 14.3351C158.989 13.7766 158.356 13.3671 157.611 13.032C156.904 12.7341 156.122 12.5479 155.303 12.5479C154.446 12.5479 153.664 12.6968 152.957 13.032C152.25 13.3298 151.617 13.7766 151.058 14.3351C150.537 14.8937 150.09 15.5266 149.792 16.2341C149.494 16.9415 149.345 17.7234 149.345 18.5426C149.345 19.3617 149.494 20.1437 149.792 20.8511C150.09 21.5585 150.5 22.1915 151.058 22.75C151.579 23.2713 152.212 23.7181 152.957 24.016C153.664 24.3139 154.446 24.5 155.303 24.5C156.122 24.5 156.904 24.3511 157.611 24.016C158.319 23.7181 158.952 23.2713 159.51 22.75C160.031 22.2288 160.478 21.5958 160.776 20.8511C161.074 20.1437 161.26 19.3617 161.26 18.5426Z" fill="#84A2FF"/>
<path fill-rule="evenodd" clip-rule="evenodd" d="M188.367 8.41494V28.6703H183.861V25.766H183.787C183.266 26.7341 182.446 27.5905 181.404 28.2607C180.324 28.9309 179.058 29.266 177.494 29.266C176.34 29.266 175.26 29.0426 174.292 28.633C173.324 28.2235 172.505 27.6277 171.835 26.883C171.164 26.1383 170.606 25.2075 170.234 24.1649C169.861 23.0852 169.638 21.9309 169.638 20.6649V8.41494H174.553V20.0319C174.553 20.6649 174.664 21.2607 174.888 21.782C175.111 22.3032 175.446 22.7873 175.819 23.1968C176.228 23.6064 176.675 23.9415 177.234 24.1649C177.792 24.3883 178.351 24.5 178.984 24.5C179.617 24.5 180.212 24.3883 180.734 24.1649C181.255 23.9415 181.739 23.6064 182.149 23.1968C182.558 22.7873 182.893 22.3032 183.117 21.782C183.34 21.2607 183.452 20.6649 183.452 20.0319V8.41494H188.367Z" fill="#84A2FF"/>
<path fill-rule="evenodd" clip-rule="evenodd" d="M191.569 4.43089C191.569 3.64897 191.829 3.016 192.388 2.45749C192.909 1.93621 193.579 1.63834 194.361 1.63834C195.143 1.63834 195.776 1.89898 196.335 2.45749C196.856 2.97877 197.154 3.64897 197.154 4.43089C197.154 5.2128 196.893 5.84579 196.335 6.4043C195.813 6.92558 195.143 7.22344 194.361 7.22344C193.579 7.22344 192.946 6.96281 192.388 6.4043C191.829 5.88302 191.569 5.2128 191.569 4.43089ZM196.781 8.41494V28.6703H191.867V8.41494H196.781Z" fill="#84A2FF"/>
<path fill-rule="evenodd" clip-rule="evenodd" d="M217 25.282H216.925C216.553 25.8032 216.143 26.3245 215.659 26.8085C215.175 27.2926 214.654 27.7394 214.058 28.0745C213.462 28.4469 212.792 28.7075 212.085 28.9309C211.377 29.1543 210.595 29.2288 209.739 29.2288C208.324 29.2288 207.021 28.9681 205.792 28.4096C204.563 27.8883 203.484 27.1064 202.553 26.1383C201.622 25.1703 200.914 24.016 200.356 22.7128C199.835 21.4096 199.537 19.9947 199.537 18.4309C199.537 16.9043 199.797 15.4522 200.356 14.149C200.877 12.8458 201.622 11.7288 202.553 10.7607C203.484 9.79259 204.563 9.04791 205.792 8.52663C207.021 8.00536 208.361 7.70749 209.739 7.70749C211.34 7.70749 212.718 8.04259 213.797 8.75004C214.877 9.45749 215.808 10.2766 216.516 11.2447H216.59V2.30856H221.505V28.6703H217V25.282ZM216.627 18.5054C216.627 17.6862 216.478 16.9043 216.143 16.1968C215.845 15.4894 215.398 14.8564 214.877 14.2979C214.356 13.7766 213.723 13.3298 212.978 13.032C212.271 12.7341 211.489 12.5479 210.67 12.5479C209.813 12.5479 209.031 12.6968 208.324 13.032C207.617 13.3298 206.984 13.7766 206.425 14.2979C205.904 14.8192 205.457 15.4522 205.159 16.1968C204.861 16.9043 204.712 17.6862 204.712 18.5054C204.712 19.3245 204.861 20.1064 205.159 20.8511C205.457 21.5958 205.867 22.2288 206.425 22.75C206.946 23.2713 207.579 23.7181 208.324 24.016C209.031 24.3139 209.813 24.5 210.67 24.5C211.489 24.5 212.271 24.3511 212.978 24.016C213.686 23.7181 214.319 23.2713 214.877 22.75C215.398 22.2288 215.845 21.5958 216.143 20.8511C216.441 20.1064 216.627 19.3245 216.627 18.5054Z" fill="#84A2FF"/>
<path fill-rule="evenodd" clip-rule="evenodd" d="M241.351 25.6915H241.276C240.941 26.1756 240.531 26.6224 240.085 27.0319C239.638 27.4788 239.117 27.8511 238.558 28.1862C238 28.5213 237.367 28.7819 236.696 28.9681C236.026 29.1543 235.281 29.266 234.5 29.266C233.085 29.266 231.781 29.0054 230.553 28.4469C229.324 27.9256 228.244 27.1437 227.313 26.1756C226.383 25.2075 225.675 24.0532 225.117 22.75C224.595 21.4468 224.297 20.032 224.297 18.4681C224.297 16.9415 224.558 15.4894 225.117 14.1862C225.638 12.883 226.383 11.766 227.313 10.7979C228.244 9.82983 229.324 9.08515 230.553 8.56387C231.781 8.04259 233.122 7.74472 234.5 7.74472C235.281 7.74472 236.026 7.85643 236.696 8.0426C237.367 8.22877 238 8.48941 238.558 8.82451C239.117 9.15962 239.638 9.53195 240.085 9.97876C240.531 10.4256 240.941 10.8724 241.276 11.3192H241.351V8.3777H246.228V28.6703H241.351V25.6915ZM241.351 18.5054C241.351 17.6862 241.202 16.9043 240.904 16.1968C240.606 15.4894 240.196 14.8564 239.638 14.2979C239.117 13.7766 238.484 13.3298 237.739 13.032C237.031 12.7341 236.25 12.5479 235.393 12.5479C234.574 12.5479 233.792 12.6968 233.085 13.032C232.377 13.3298 231.744 13.7766 231.186 14.2979C230.664 14.8192 230.218 15.4522 229.92 16.1968C229.622 16.9043 229.436 17.6862 229.436 18.5054C229.436 19.3245 229.585 20.1064 229.92 20.8511C230.218 21.5958 230.664 22.2288 231.186 22.75C231.707 23.2713 232.34 23.7181 233.085 24.016C233.792 24.3139 234.574 24.5 235.393 24.5C236.25 24.5 237.031 24.3511 237.739 24.016C238.446 23.7181 239.079 23.2713 239.638 22.75C240.159 22.2288 240.606 21.5958 240.904 20.8511C241.202 20.1064 241.351 19.3245 241.351 18.5054Z" fill="#84A2FF"/>
<path fill-rule="evenodd" clip-rule="evenodd" d="M256.393 28.6703C255.537 28.6703 254.755 28.5213 254.047 28.1862C253.303 27.8883 252.67 27.4415 252.111 26.9202C251.553 26.399 251.143 25.766 250.808 25.0213C250.473 24.3139 250.324 23.532 250.324 22.6756V12.7341H248.5V8.3777H250.324V3.79792H255.239V8.3777H258.218V12.7341H255.239V22.6756C255.239 23.0107 255.351 23.3085 255.574 23.5692C255.797 23.7926 256.095 23.9043 256.43 23.9043H258.813V28.6703H256.393Z" fill="#84A2FF"/>
<path fill-rule="evenodd" clip-rule="evenodd" d="M281.824 18.5054C281.824 20.032 281.526 21.4841 280.93 22.7873C280.335 24.0905 279.553 25.2447 278.585 26.2128C277.579 27.1809 276.425 27.9256 275.085 28.4841C273.744 29.0054 272.292 29.3032 270.728 29.3032C269.202 29.3032 267.75 29.0426 266.409 28.4841C265.069 27.9628 263.914 27.1809 262.909 26.2128C261.904 25.2447 261.122 24.0905 260.563 22.7873C259.968 21.4841 259.67 20.0692 259.67 18.5054C259.67 16.9788 259.968 15.5266 260.563 14.2234C261.159 12.9203 261.941 11.8032 262.909 10.8351C263.914 9.86706 265.069 9.12238 266.409 8.60111C267.75 8.07983 269.202 7.78195 270.728 7.78195C272.255 7.78195 273.707 8.0426 275.085 8.60111C276.425 9.12238 277.617 9.86706 278.585 10.8351C279.59 11.8032 280.372 12.9203 280.93 14.2234C281.526 15.5639 281.824 16.9788 281.824 18.5054ZM276.723 18.5054C276.723 17.6862 276.574 16.9043 276.239 16.1968C275.941 15.4894 275.494 14.8564 274.973 14.2979C274.452 13.7766 273.819 13.3298 273.074 13.032C272.367 12.7341 271.585 12.5479 270.728 12.5479C269.909 12.5479 269.164 12.6968 268.42 13.032C267.712 13.3298 267.079 13.7766 266.558 14.2979C266.037 14.8192 265.59 15.4522 265.292 16.1968C264.994 16.9043 264.808 17.6862 264.808 18.5054C264.808 19.3245 264.957 20.1064 265.292 20.8511C265.59 21.5958 266.037 22.2288 266.558 22.75C267.079 23.2713 267.712 23.7181 268.42 24.016C269.127 24.3139 269.909 24.5 270.728 24.5C271.585 24.5 272.367 24.3511 273.074 24.016C273.781 23.7181 274.414 23.2713 274.973 22.75C275.494 22.2288 275.941 21.5958 276.239 20.8511C276.574 20.1064 276.723 19.3245 276.723 18.5054Z" fill="#84A2FF"/>
<path fill-rule="evenodd" clip-rule="evenodd" d="M289.01 8.41494V11.2075H289.085C289.345 10.7607 289.643 10.3511 289.978 9.94153C290.313 9.53196 290.723 9.15961 291.17 8.86174C291.617 8.56387 292.138 8.30323 292.696 8.11706C293.255 7.93089 293.888 7.81919 294.595 7.81919H295.005V13.032C294.819 12.9947 294.633 12.9575 294.446 12.9203C294.26 12.883 294.074 12.883 293.851 12.883C293.255 12.883 292.696 12.9947 292.175 13.2181C291.654 13.4415 291.207 13.7394 290.797 14.1117C290.388 14.4841 290.053 14.9309 289.829 15.4522C289.569 15.9734 289.42 16.532 289.383 17.0905V28.6703H284.579V8.41494H289.01Z" fill="#84A2FF"/>
<defs>
<linearGradient id="paint0_linear_530_374" x1="17.9463" y1="0.334961" x2="21.0155" y2="9.00363" gradientUnits="userSpaceOnUse">
<stop offset="0.192708" stop-color="#9DB8FF"/>
<stop offset="0.640625" stop-color="#3555FE"/>
<stop offset="1" stop-color="#0C20E7"/>
</linearGradient>
</defs>
</svg>
