<svg xmlns="http://www.w3.org/2000/svg" viewBox="0 0 257 80">
  <defs>
    <linearGradient id="a" x1="87.61%" x2="0%" y1="50%" y2="50%">
      <stop offset="0%" stop-color="#7EB5FF"/>
      <stop offset="99.97%" stop-color="#1A38F8"/>
    </linearGradient>
    <linearGradient id="b" x1="43.8%" x2="43.8%" y1="6.2%" y2="93.81%">
      <stop offset="0%" stop-color="#7EB5FF"/>
      <stop offset="99.95%" stop-color="#1A38F8"/>
    </linearGradient>
  </defs>
  <g fill="none" fill-rule="evenodd">
    <path fill="url(#a)" fill-rule="nonzero" d="M20 13.46c3.58-.43 6.21.21 7.9 1.91a8.3 8.3 0 012.6 5.79v45.46c-2.9.23-5.34-.36-7.35-1.77A7.25 7.25 0 0120 58.8zm16.2 0c3.59-.43 6.22.21 7.9 1.91a8.3 8.3 0 012.6 5.79v45.46c-2.89.23-5.34-.36-7.35-1.77a7.25 7.25 0 01-3.14-6.05zm16.21 0c3.59-.43 6.22.21 7.9 1.91a8.3 8.3 0 012.6 5.79v45.46c-2.9.23-5.34-.36-7.35-1.77a7.25 7.25 0 01-3.15-6.05z" transform="rotate(-135 41.45 40)"/>
    <path fill="#050E26" d="M218.61 32.25c3.6 0 6.43 1.2 8.48 3.63l.22.26v-3.15h6.88v26.67h-6.88v-3.15l-.22.27c-2.05 2.42-4.87 3.63-8.48 3.63-3.55 0-6.6-1.36-9.14-4.08-2.54-2.72-3.82-6.06-3.82-10s1.27-7.28 3.82-10a12.08 12.08 0 019.14-4.08zm-29.86 0c3.9 0 7.14 1.35 9.68 4.05a14.08 14.08 0 013.81 10.03c0 .74-.06 1.52-.18 2.33l-.09.5h-20.1c.92 3.34 3.43 5 7.52 5 2.52 0 4.45-.8 5.8-2.44l.17-.22h6.61a8.85 8.85 0 01-1.25 3.2c-1.97 3.2-6.32 5.7-11.44 5.7-4.4 0-7.95-1.33-10.61-4s-4-6.02-4-10.07c0-4.02 1.31-7.37 3.94-10.06 2.63-2.68 6.01-4.02 10.14-4.02zm-74.72-12.71v32.08a1 1 0 001 1h13.24v7.04h-19.6a2 2 0 01-2-2V19.54h7.36zm24.96 13.45v26.67h-6.88V32.99h6.88zm21.12-.74c2.91 0 5.32.97 7.22 2.93 1.9 1.96 2.86 4.66 2.86 8.1v16.38h-6.88V43.83a5.3 5.3 0 00-1.44-3.77 5.25 5.25 0 00-3.84-1.41c-1.78 0-3.2.55-4.27 1.65-1.07 1.1-1.6 2.76-1.6 4.96v14.4h-6.88V32.99h6.88v2.99l.17-.24c1.68-2.33 4.27-3.5 7.78-3.5zm95.3.21v7.68l-.34-.04a8.03 8.03 0 00-5.28 1.32c-1.66 1.1-2.48 2.93-2.48 5.5v12.74h-6.88V32.99h6.88v4.59l.12-.32a7.12 7.12 0 013.05-3.52 9.68 9.68 0 014.93-1.28zm-35.52 6.35c-2.13 0-3.89.7-5.28 2.1-1.38 1.4-2.08 3.21-2.08 5.42s.7 4.01 2.08 5.44a7.15 7.15 0 005.28 2.08 7.2 7.2 0 007.42-7.52 7.2 7.2 0 00-7.41-7.52zm-31.14-.38c-1.85 0-3.38.47-4.59 1.42a6.65 6.65 0 00-2.32 3.65l-.08.32h13.6a6.44 6.44 0 00-2.43-4.05 6.96 6.96 0 00-4.18-1.34z"/>
    <path fill="url(#b)" fill-rule="nonzero" d="M31.52-3.34c3.52 0 6.4 2.72 6.65 6.17l.02.5v12.62h-.22a6.67 6.67 0 01-6.64-6.17l-.02-.5V-3.33h.21z" transform="rotate(90 79.75 67.97)"/>
  </g>
</svg>
